<svg xmlns="http://www.w3.org/2000/svg" viewBox="0 0 512 512" width="512" height="512" role="img" aria-label="Scematica Omni world plate for parity &lt;fixture&gt; &amp; co (repository), observed by repo:pärity"><rect x="0" y="0" width="512" height="512" fill="#08060f"/><rect x="8" y="8" width="496" height="496" fill="none" stroke="#6d40c4" stroke-width="1"/><text x="24" y="34" font-family="ui-monospace,SFMono-Regular,Menlo,Consolas,monospace" font-size="18" fill="#cba6ff" text-anchor="start">parity &lt;fixture&gt; &amp; co</text><text x="24" y="52" font-family="ui-monospace,SFMono-Regular,Menlo,Consolas,monospace" font-size="10" fill="#8a81a8" text-anchor="start">repository · software · repo:pärity</text><circle cx="256" cy="256" r="180" fill="none" stroke="#2a1f45" stroke-width="5"/><path d="M 256 76 A 180 180 0 1 1 100.115 346" fill="none" stroke="#a96bff" stroke-width="5" stroke-linecap="butt"/><path d="M 256 88 L 256 64" stroke="#6f6690" stroke-width="3" stroke-dasharray="3 3"/><path d="M 401.492 340 L 422.277 352" stroke="#6f6690" stroke-width="3" stroke-dasharray="3 3"/><path d="M 110.508 340 L 89.723 352" stroke="#6f6690" stroke-width="3" stroke-dasharray="3 3"/><path d="M 256 156 L 256 98" stroke="#ff7b9c" stroke-width="2"/><path d="M 256 93 L 250.556 100.095 L 261.444 100.095 Z" fill="#ff7b9c" stroke="#ff7b9c" stroke-width="1.5"/><path d="M 351.106 225.098 L 351.106 225.098" stroke="#86e5c0" stroke-width="2"/><circle cx="351.106" cy="225.098" r="3.5" fill="#86e5c0" stroke="#86e5c0" stroke-width="1.5"/><path d="M 314.779 336.902 L 327.563 354.498" stroke="#ff7b9c" stroke-width="2" stroke-dasharray="4 3"/><path d="M 330.502 358.543 L 329.725 350.364 L 322.963 355.277 Z" fill="none" stroke="#ff7b9c" stroke-width="1.5"/><path d="M 197.221 336.902 L 180.176 360.363" stroke="#86e5c0" stroke-width="2" stroke-dasharray="4 3"/><circle cx="180.176" cy="360.363" r="3.5" fill="none" stroke="#86e5c0" stroke-width="1.5"/><path d="M 160.894 225.098 L 142.508 219.124" stroke="#86e5c0" stroke-width="2"/><circle cx="142.508" cy="219.124" r="3.5" fill="#86e5c0" stroke="#86e5c0" stroke-width="1.5"/><path d="M 256 168 A 88 88 0 0 1 256 344" fill="none" stroke="#86e5c0" stroke-width="3"/><path d="M 256 344 A 88 88 0 0 1 179.79 300" fill="none" stroke="#f2b15c" stroke-width="3"/><path d="M 179.79 300 A 88 88 0 0 1 179.79 212" fill="none" stroke="#7dd3fc" stroke-width="3" stroke-dasharray="4 4"/><path d="M 179.79 212 A 88 88 0 0 1 256 168" fill="none" stroke="#6f6690" stroke-width="3" stroke-dasharray="4 4"/><circle cx="256" cy="256" r="29" fill="#a96bff" fill-opacity="0.18" stroke="#a96bff" stroke-width="1.5"/><text x="256" y="261" font-family="ui-monospace,SFMono-Regular,Menlo,Consolas,monospace" font-size="16" fill="#e6e0f5" text-anchor="middle">0.50</text><text x="24" y="460" font-family="ui-monospace,SFMono-Regular,Menlo,Consolas,monospace" font-size="10" fill="#8a81a8" text-anchor="start">EXTENT 6/9</text><text x="488" y="460" font-family="ui-monospace,SFMono-Regular,Menlo,Consolas,monospace" font-size="10" fill="#6f6690" text-anchor="end">3 BLIND SPOT(S)</text><text x="24" y="478" font-family="ui-monospace,SFMono-Regular,Menlo,Consolas,monospace" font-size="10" fill="#8a81a8" text-anchor="start">COVERAGE 3/5</text><rect x="445" y="470" width="7" height="7" fill="#a96bff"/><rect x="454" y="470" width="7" height="7" fill="#a96bff"/><rect x="463" y="470" width="7" height="7" fill="none" stroke="#544c6c" stroke-width="1"/><rect x="472" y="470" width="7" height="7" fill="none" stroke="#544c6c" stroke-width="1"/><rect x="481" y="470" width="7" height="7" fill="#a96bff"/><text x="24" y="496" font-family="ui-monospace,SFMono-Regular,Menlo,Consolas,monospace" font-size="10" fill="#7dd3fc" text-anchor="start">world f2f9·fac5·b668</text><text x="488" y="496" font-family="ui-monospace,SFMono-Regular,Menlo,Consolas,monospace" font-size="10" fill="#8a81a8" text-anchor="end">L3 S1 A1 M1</text></svg>
